<svg width="338" height="76" viewBox="0 0 338 76" fill="none" xmlns="http://www.w3.org/2000/svg">
<g filter="url(#filter0_d_1_13)">
<path d="M44 34L294 34" stroke="#F0F8FF" stroke-width="45" stroke-linecap="round"/>
<path d="M100 34L238 34" stroke="#DDBC91" stroke-width="35" stroke-linecap="round"/>
<path d="M110.203 36.2528H114.038L115.423 37.9929L117.767 40.6562L120.821 44.3494H116.453L114.287 41.8281L112.831 39.733L110.203 36.2528ZM120.786 33.9091C120.786 35.9332 120.392 37.6407 119.605 39.0316C118.818 40.4165 117.755 41.4671 116.418 42.1832C115.08 42.8935 113.589 43.2486 111.943 43.2486C110.286 43.2486 108.789 42.8905 107.451 42.1744C106.119 41.4523 105.06 40.3988 104.273 39.0138C103.491 37.623 103.101 35.9214 103.101 33.9091C103.101 31.8849 103.491 30.1804 104.273 28.7955C105.06 27.4046 106.119 26.354 107.451 25.6438C108.789 24.9277 110.286 24.5696 111.943 24.5696C113.589 24.5696 115.08 24.9277 116.418 25.6438C117.755 26.354 118.818 27.4046 119.605 28.7955C120.392 30.1804 120.786 31.8849 120.786 33.9091ZM115.707 33.9091C115.707 32.8201 115.562 31.9027 115.272 31.157C114.988 30.4053 114.565 29.8371 114.003 29.4524C113.446 29.0618 112.76 28.8665 111.943 28.8665C111.126 28.8665 110.437 29.0618 109.875 29.4524C109.318 29.8371 108.895 30.4053 108.605 31.157C108.321 31.9027 108.179 32.8201 108.179 33.9091C108.179 34.9981 108.321 35.9184 108.605 36.6701C108.895 37.4158 109.318 37.984 109.875 38.3746C110.437 38.7594 111.126 38.9517 111.943 38.9517C112.76 38.9517 113.446 38.7594 114.003 38.3746C114.565 37.984 114.988 37.4158 115.272 36.6701C115.562 35.9184 115.707 34.9981 115.707 33.9091ZM132.007 37.0341V29.3636H136.908V43H132.256V40.4077H132.114C131.818 41.2777 131.3 41.9583 130.56 42.4496C129.82 42.9349 128.941 43.1776 127.923 43.1776C126.97 43.1776 126.136 42.9586 125.42 42.5206C124.71 42.0826 124.156 41.4789 123.76 40.7095C123.369 39.9401 123.171 39.0582 123.165 38.0639V29.3636H128.065V37.0341C128.071 37.7088 128.243 38.2385 128.58 38.6232C128.924 39.0079 129.403 39.2003 130.018 39.2003C130.427 39.2003 130.779 39.1145 131.075 38.9428C131.377 38.7653 131.608 38.5167 131.767 38.1971C131.933 37.8716 132.013 37.4839 132.007 37.0341ZM139.4 43V29.3636H144.301V43H139.4ZM141.85 27.9432C141.188 27.9432 140.619 27.7242 140.146 27.2862C139.672 26.8482 139.436 26.3215 139.436 25.706C139.436 25.0904 139.672 24.5637 140.146 24.1257C140.619 23.6877 141.188 23.4688 141.85 23.4688C142.519 23.4688 143.087 23.6877 143.555 24.1257C144.028 24.5637 144.265 25.0904 144.265 25.706C144.265 26.3215 144.028 26.8482 143.555 27.2862C143.087 27.7242 142.519 27.9432 141.85 27.9432ZM153.367 43.2486C151.888 43.2486 150.621 42.9556 149.567 42.3697C148.514 41.7778 147.706 40.9551 147.144 39.9016C146.582 38.8422 146.3 37.6141 146.3 36.2173C146.3 34.8205 146.582 33.5954 147.144 32.5419C147.706 31.4825 148.514 30.6598 149.567 30.0739C150.621 29.482 151.888 29.1861 153.367 29.1861C154.705 29.1861 155.862 29.4287 156.838 29.9141C157.821 30.3935 158.581 31.0741 159.12 31.956C159.659 32.8319 159.931 33.8617 159.937 35.0455H155.391C155.326 34.3293 155.119 33.7848 154.77 33.4119C154.427 33.0331 153.983 32.8438 153.438 32.8438C153.012 32.8438 152.639 32.968 152.32 33.2166C152 33.4593 151.751 33.8292 151.574 34.3263C151.396 34.8176 151.308 35.4361 151.308 36.1818C151.308 36.9276 151.396 37.549 151.574 38.0462C151.751 38.5374 152 38.9073 152.32 39.1559C152.639 39.3986 153.012 39.5199 153.438 39.5199C153.799 39.5199 154.119 39.437 154.397 39.2713C154.675 39.0997 154.9 38.8511 155.072 38.5256C155.249 38.1941 155.356 37.7917 155.391 37.3182H159.937C159.919 38.5196 159.644 39.5672 159.111 40.4609C158.578 41.3487 157.824 42.0353 156.847 42.5206C155.877 43.0059 154.717 43.2486 153.367 43.2486ZM166.362 39.7685L166.398 33.9446H167.037L170.339 29.3636H175.844L170.304 36.5014H168.919L166.362 39.7685ZM161.959 43V24.8182H166.859V43H161.959ZM170.375 43L167.25 37.6023L170.446 34.1222L175.986 43H170.375ZM175.136 28.7955V24.8182H190.938V28.7955H185.469V43H180.604V28.7955H175.136ZM194.287 48.1136C193.725 48.1136 193.189 48.0692 192.68 47.9805C192.171 47.8976 191.725 47.7822 191.34 47.6342L192.405 44.1541C192.808 44.2962 193.175 44.3879 193.506 44.4293C193.843 44.4708 194.131 44.4471 194.367 44.3583C194.61 44.2695 194.785 44.1009 194.891 43.8523L194.998 43.6037L190.204 29.3636H195.317L197.519 38.8097H197.661L199.898 29.3636H205.047L200.076 44.1364C199.827 44.888 199.466 45.5627 198.993 46.1605C198.525 46.7642 197.91 47.2406 197.146 47.5898C196.383 47.939 195.43 48.1136 194.287 48.1136ZM206.441 48.1136V29.3636H211.306V31.7429H211.413C211.59 31.2812 211.851 30.8581 212.194 30.4734C212.537 30.0827 212.963 29.772 213.472 29.5412C213.981 29.3045 214.573 29.1861 215.248 29.1861C216.148 29.1861 217.003 29.4258 217.814 29.9052C218.63 30.3846 219.293 31.1392 219.802 32.169C220.317 33.1989 220.575 34.5365 220.575 36.1818C220.575 37.7562 220.329 39.0612 219.838 40.0969C219.352 41.1327 218.701 41.9051 217.885 42.4141C217.074 42.9231 216.183 43.1776 215.212 43.1776C214.573 43.1776 214.002 43.074 213.499 42.8668C213.002 42.6538 212.576 42.3667 212.221 42.0057C211.871 41.6387 211.602 41.2244 211.413 40.7628H211.342V48.1136H206.441ZM211.235 36.1818C211.235 36.8447 211.321 37.4188 211.493 37.9041C211.67 38.3835 211.919 38.7564 212.238 39.0227C212.564 39.2831 212.952 39.4134 213.401 39.4134C213.851 39.4134 214.233 39.2861 214.547 39.0316C214.866 38.7712 215.109 38.4013 215.275 37.9219C215.446 37.4366 215.532 36.8565 215.532 36.1818C215.532 35.5071 215.446 34.93 215.275 34.4506C215.109 33.9653 214.866 33.5954 214.547 33.3409C214.233 33.0805 213.851 32.9503 213.401 32.9503C212.952 32.9503 212.564 33.0805 212.238 33.3409C211.919 33.5954 211.67 33.9653 211.493 34.4506C211.321 34.93 211.235 35.5071 211.235 36.1818ZM229.162 43.2486C227.706 43.2486 226.451 42.9704 225.398 42.4141C224.35 41.8518 223.542 41.0469 222.974 39.9993C222.412 38.9458 222.131 37.6851 222.131 36.2173C222.131 34.8087 222.415 33.5777 222.983 32.5241C223.551 31.4706 224.353 30.6509 225.389 30.065C226.424 29.479 227.647 29.1861 229.055 29.1861C230.085 29.1861 231.017 29.3459 231.852 29.6655C232.686 29.9851 233.399 30.4497 233.991 31.0593C234.583 31.663 235.039 32.3969 235.358 33.261C235.678 34.1251 235.838 35.0987 235.838 36.1818V37.3182H223.657V34.6193H231.328C231.322 34.2287 231.221 33.8854 231.026 33.5895C230.837 33.2876 230.579 33.0539 230.254 32.8881C229.934 32.7165 229.57 32.6307 229.162 32.6307C228.765 32.6307 228.401 32.7165 228.07 32.8881C227.738 33.0539 227.472 33.2847 227.271 33.5806C227.075 33.8765 226.972 34.2228 226.96 34.6193V37.5312C226.96 37.9692 227.052 38.3598 227.235 38.7031C227.419 39.0464 227.682 39.3157 228.025 39.511C228.369 39.7063 228.783 39.804 229.268 39.804C229.606 39.804 229.913 39.7566 230.192 39.6619C230.476 39.5672 230.718 39.4311 230.92 39.2536C231.121 39.0701 231.269 38.8511 231.363 38.5966H235.838C235.684 39.5436 235.32 40.3662 234.746 41.0646C234.172 41.7571 233.411 42.2957 232.464 42.6804C231.523 43.0592 230.422 43.2486 229.162 43.2486Z" fill="black"/>
</g>
<defs>
<filter id="filter0_d_1_13" x="0" y="0" width="338" height="76" filterUnits="userSpaceOnUse" color-interpolation-filters="sRGB">
<feFlood flood-opacity="0" result="BackgroundImageFix"/>
<feColorMatrix in="SourceAlpha" type="matrix" values="0 0 0 0 0 0 0 0 0 0 0 0 0 0 0 0 0 0 127 0" result="hardAlpha"/>
<feOffset dy="4"/>
<feGaussianBlur stdDeviation="2"/>
<feComposite in2="hardAlpha" operator="out"/>
<feColorMatrix type="matrix" values="0 0 0 0 0 0 0 0 0 0 0 0 0 0 0 0 0 0 0.25 0"/>
<feBlend mode="normal" in2="BackgroundImageFix" result="effect1_dropShadow_1_13"/>
<feBlend mode="normal" in="SourceGraphic" in2="effect1_dropShadow_1_13" result="shape"/>
</filter>
</defs>
</svg>
